<svg width="22" height="19" viewBox="0 0 22 19" fill="none" xmlns="http://www.w3.org/2000/svg">
<path d="M20.5369 9.94064C20.4496 9.94068 20.3632 9.92239 20.2834 9.88695L14.966 7.50578C14.8569 7.45677 14.7644 7.3773 14.6995 7.27693C14.6345 7.17656 14.6 7.05956 14.6 6.94001C14.6 6.82047 14.6345 6.70347 14.6995 6.60309C14.7644 6.50272 14.8569 6.42325 14.966 6.37424L20.2834 4.00133C20.4335 3.9347 20.6038 3.93022 20.7572 3.98888C20.9106 4.04755 21.0345 4.16457 21.1019 4.31436C21.1684 4.46456 21.1728 4.63502 21.114 4.78843C21.0552 4.94183 20.9379 5.06568 20.788 5.13286L16.7368 6.94084L20.7888 8.75542C20.9184 8.81319 21.0242 8.91368 21.0886 9.0401C21.153 9.16652 21.172 9.31121 21.1425 9.44997C21.113 9.58874 21.0368 9.71317 20.9266 9.80248C20.8163 9.89179 20.6788 9.94056 20.5369 9.94064Z" fill="#FEA55F"/>
<path d="M13.2902 18.5791C7.44417 18.5791 2.33328 14.6328 0.863934 8.98171C0.822533 8.82279 0.84596 8.65393 0.92906 8.51228C1.01216 8.37063 1.14813 8.26779 1.30705 8.22639C1.46597 8.18499 1.63483 8.20842 1.77648 8.29152C1.91813 8.37462 2.02097 8.51058 2.06237 8.66951C2.71055 11.1535 4.16445 13.3522 6.19626 14.9213C8.22808 16.4904 10.723 17.3411 13.2902 17.3402C13.4544 17.3402 13.612 17.4055 13.7282 17.5216C13.8443 17.6378 13.9096 17.7954 13.9096 17.9596C13.9096 18.1239 13.8443 18.2815 13.7282 18.3977C13.612 18.5138 13.4544 18.5791 13.2902 18.5791Z" fill="#FEA55F"/>
<path d="M11.1559 13.4352C10.9916 13.4352 10.8341 13.3699 10.7179 13.2538C10.6017 13.1376 10.5365 12.98 10.5365 12.8157V1.04035C10.5365 0.876062 10.6017 0.718502 10.7179 0.602332C10.8341 0.486162 10.9916 0.420898 11.1559 0.420898C11.3202 0.420898 11.4778 0.486162 11.5939 0.602332C11.7101 0.718502 11.7754 0.876062 11.7754 1.04035V12.8157C11.7754 12.98 11.7101 13.1376 11.5939 13.2538C11.4778 13.3699 11.3202 13.4352 11.1559 13.4352Z" fill="#FEA55F"/>
</svg>
