<svg width="95" height="64" viewBox="0 0 95 64" fill="none" xmlns="http://www.w3.org/2000/svg">
<path d="M32.478 23.1939L46.978 14.3195C47.2984 14.1234 47.7016 14.1234 48.022 14.3195L62.522 23.1939C62.819 23.3757 63 23.6988 63 24.0469V39.9531C63 40.3012 62.819 40.6243 62.522 40.8061L48.022 49.6805C47.7016 49.8766 47.2984 49.8766 46.978 49.6805L32.478 40.8061C32.181 40.6243 32 40.3012 32 39.9531V24.0469C32 23.6988 32.181 23.3757 32.478 23.1939Z" stroke="white" stroke-width="2"/>
<path d="M50 24L44.8408 28.5859C44.3933 28.9837 44.3933 29.683 44.8408 30.0807L49.1592 33.9193C49.6067 34.317 49.6067 35.0163 49.1592 35.4141L44 40" stroke="white" stroke-width="2" stroke-linecap="round"/>
</svg>
