<svg width="21" height="21" viewBox="0 0 21 21" fill="none" xmlns="http://www.w3.org/2000/svg">
<path d="M5.4853 5.75045C5.4632 5.55157 5.63998 5.3748 5.86095 5.3748H15.0975C15.3185 5.3748 15.4732 5.52948 15.4732 5.75045V14.987C15.4732 15.208 15.2964 15.3848 15.0975 15.3627L14.2357 15.3848C14.0148 15.3848 13.838 15.208 13.8601 15.0091V8.15903L6.32499 15.6941C6.17031 15.8488 5.92724 15.8267 5.79466 15.6941L5.17594 15.0754C5.02126 14.9207 5.02126 14.6998 5.17594 14.5451L12.711 7.00998L5.83885 6.98788C5.63998 7.00998 5.4632 6.8332 5.4632 6.61223L5.4853 5.75045Z" fill="#43D9AD"/>
</svg>
