<svg width="18" height="17" viewBox="0 0 18 17" fill="none" xmlns="http://www.w3.org/2000/svg">
<path d="M16.3125 3.75C17.2266 3.75 18 4.52344 18 5.4375V14.4375C18 15.3867 17.2266 16.125 16.3125 16.125H1.6875C0.738281 16.125 0 15.3867 0 14.4375V5.4375C0 4.52344 0.738281 3.75 1.6875 3.75H4.5V2.0625C4.5 1.14844 5.23828 0.375 6.1875 0.375H11.8125C12.7266 0.375 13.5 1.14844 13.5 2.0625V3.75H16.3125ZM6.1875 2.0625V3.75H11.8125V2.0625H6.1875ZM1.89844 5.4375C1.75781 5.4375 1.6875 5.54297 1.6875 5.64844V8.25H16.3125V5.64844C16.3125 5.54297 16.207 5.4375 16.1016 5.4375H1.89844ZM16.1016 14.4375C16.207 14.4375 16.3125 14.3672 16.3125 14.2266V9.9375H11.25V10.7812C11.25 11.2734 10.8633 11.625 10.4062 11.625H7.59375C7.10156 11.625 6.75 11.2734 6.75 10.7812V9.9375H1.6875V14.2266C1.6875 14.3672 1.75781 14.4375 1.89844 14.4375H16.1016Z" fill="#43D9AD"/>
</svg>
