<svg width="23" height="14" viewBox="0 0 23 14" fill="none" xmlns="http://www.w3.org/2000/svg">
<path d="M21.3047 3.45312C22.0078 3.69922 22.5 4.29688 22.5 5.03516C22.5 5.73828 22.0078 6.33594 21.3047 6.58203L17.4727 7.74219L18 11.75C18 13.0156 14.9766 14 11.25 14C7.48828 14 4.5 13.0156 4.5 11.75L4.99219 7.74219L3.05859 7.14453C2.98828 7.25 2.91797 7.39062 2.88281 7.49609C3.16406 7.70703 3.375 8.02344 3.375 8.41016C3.375 8.76172 3.16406 9.07812 2.88281 9.28906L3.76172 13.332C3.83203 13.6836 3.58594 14 3.23438 14H1.23047C0.878906 14 0.632812 13.6836 0.703125 13.332L1.58203 9.28906C1.30078 9.07812 1.125 8.76172 1.125 8.41016C1.125 7.95312 1.37109 7.56641 1.75781 7.39062C1.79297 7.17969 1.86328 7.00391 1.93359 6.82812L1.16016 6.58203C0.457031 6.33594 0 5.73828 0 5.03516C0 4.29688 0.457031 3.69922 1.16016 3.45312L10.2305 0.675781C10.8984 0.464844 11.5664 0.464844 12.2344 0.675781L21.3047 3.45312ZM16.2422 11.4336L15.8555 8.26953L12.2344 9.35938C11.3555 9.64062 10.6172 9.5 10.2305 9.35938L6.60938 8.26953L6.22266 11.4336C8.29688 12.6289 14.1328 12.6289 16.2422 11.4336ZM11.7422 7.74219L20.6016 5.03516L11.7422 2.29297C11.4258 2.1875 11.0391 2.1875 10.7227 2.29297L1.86328 5L3.30469 5.45703C3.51562 5.38672 3.72656 5.28125 3.97266 5.24609L11.1445 3.91016C11.4258 3.83984 11.7422 4.05078 11.7773 4.36719C11.8477 4.64844 11.6367 4.96484 11.3203 5L5.41406 6.125L10.7227 7.74219C11.0391 7.84766 11.4258 7.84766 11.7422 7.74219Z" fill="#43D9AD"/>
</svg>
