<svg width="444" height="477" viewBox="0 0 444 477" fill="none" xmlns="http://www.w3.org/2000/svg">
<g opacity="0.5">
<path opacity="0.1" d="M95.6752 78.224L256.485 55.693C256.857 55.6408 257.227 55.8016 257.443 56.1091L350.673 189.059C350.873 189.344 350.911 189.712 350.772 190.032L290.132 329.545C289.993 329.865 289.699 330.089 289.354 330.137L128.544 352.668C128.172 352.72 127.802 352.56 127.586 352.252L34.3556 219.302C34.1557 219.017 34.1185 218.649 34.2572 218.329L94.8969 78.8157C95.0356 78.4965 95.3304 78.2723 95.6752 78.224Z" stroke="white" stroke-width="2"/>
<path opacity="0.1" d="M269.668 120.937L365.76 107.474C366.132 107.422 366.502 107.582 366.718 107.89L422.427 187.334C422.627 187.619 422.664 187.987 422.526 188.307L386.294 271.664C386.155 271.984 385.86 272.208 385.516 272.256L289.424 285.72C289.052 285.772 288.682 285.611 288.466 285.303L232.757 205.86C232.557 205.575 232.52 205.206 232.658 204.887L268.89 121.529C269.029 121.21 269.323 120.986 269.668 120.937Z" stroke="white" stroke-width="2"/>
<path opacity="0.1" d="M41.1277 376.136L69.2987 292.513C69.4186 292.157 69.7279 291.899 70.0995 291.843L157.383 278.882C157.727 278.831 158.073 278.963 158.297 279.23L211.332 342.627C211.555 342.894 211.623 343.258 211.512 343.588L183.341 427.211C183.221 427.567 182.912 427.825 182.54 427.88L95.2572 440.841C94.9129 440.893 94.5667 440.761 94.3434 440.494L41.3083 377.097C41.0849 376.83 41.0165 376.466 41.1277 376.136Z" stroke="white" stroke-width="2"/>
<path opacity="0.1" d="M169.97 350.486L183.694 309.748C183.814 309.392 184.123 309.133 184.495 309.078L227.016 302.764C227.361 302.712 227.707 302.844 227.93 303.111L253.76 333.987C253.983 334.254 254.052 334.618 253.94 334.948L240.216 375.686C240.097 376.042 239.787 376.301 239.416 376.356L196.894 382.67C196.55 382.721 196.204 382.59 195.98 382.323L170.151 351.446C169.928 351.179 169.859 350.815 169.97 350.486Z" stroke="white" stroke-width="2"/>
<path opacity="0.1" d="M61.9703 81.4856L75.6942 40.7476C75.8142 40.3917 76.1235 40.1329 76.495 40.0777L119.016 33.7636C119.361 33.7125 119.707 33.8441 119.93 34.1111L145.76 64.9873C145.983 65.2543 146.051 65.6183 145.94 65.9482L132.216 106.686C132.096 107.042 131.787 107.301 131.416 107.356L88.8943 113.67C88.55 113.721 88.2038 113.59 87.9804 113.323L62.151 82.4465C61.9276 82.1795 61.8591 81.8155 61.9703 81.4856Z" stroke="white" stroke-width="2"/>
<path opacity="0.1" d="M104.399 155.241L107.091 147.253C107.211 146.897 107.52 146.638 107.891 146.583L116.23 145.345C116.574 145.293 116.92 145.425 117.143 145.692L122.197 151.733C122.42 152 122.489 152.364 122.378 152.694L119.686 160.682C119.566 161.038 119.257 161.297 118.886 161.352L110.547 162.59C110.203 162.642 109.857 162.51 109.634 162.243L104.58 156.202C104.357 155.935 104.288 155.571 104.399 155.241Z" fill="#D9D9D9"/>
<path opacity="0.1" d="M307.731 318.101L316.461 292.187C316.581 291.831 316.89 291.572 317.261 291.517L344.31 287.5C344.654 287.449 345 287.581 345.224 287.848L361.649 307.482C361.872 307.749 361.941 308.113 361.829 308.443L353.1 334.357C352.98 334.713 352.67 334.972 352.299 335.027L325.251 339.043C324.906 339.095 324.56 338.963 324.337 338.696L307.911 319.062C307.688 318.795 307.62 318.431 307.731 318.101Z" fill="#D9D9D9"/>
<path opacity="0.1" d="M186.236 275.358L187.086 272.835C187.206 272.479 187.515 272.22 187.887 272.165L190.521 271.774C190.865 271.723 191.211 271.854 191.435 272.121L193.021 274.018C193.245 274.285 193.313 274.649 193.202 274.979L192.352 277.502C192.232 277.858 191.923 278.117 191.551 278.172L188.917 278.563C188.573 278.615 188.227 278.483 188.003 278.216L186.417 276.319C186.193 276.052 186.125 275.688 186.236 275.358Z" fill="#D9D9D9"/>
<path opacity="0.1" d="M275.464 109.202L276.314 106.679C276.434 106.323 276.743 106.064 277.114 106.009L279.748 105.618C280.093 105.567 280.439 105.698 280.662 105.965L282.249 107.862C282.472 108.129 282.541 108.493 282.429 108.823L281.579 111.346C281.459 111.702 281.15 111.961 280.779 112.016L278.145 112.407C277.8 112.459 277.454 112.327 277.231 112.06L275.644 110.163C275.421 109.896 275.352 109.532 275.464 109.202Z" fill="#D9D9D9"/>
</g>
</svg>
