<svg width="24" height="24" viewBox="0 0 24 24" fill="none" xmlns="http://www.w3.org/2000/svg">
<path d="M12 13H19.5M9.424 7.26804L14.423 2.26904M16.633 16.644L14.231 19.059C13.9346 19.3573 13.5822 19.594 13.194 19.7555C12.8058 19.917 12.3895 20.0001 11.969 20.0001C11.5485 20.0001 11.1322 19.917 10.744 19.7555C10.3558 19.594 10.0034 19.3573 9.707 19.059L5.937 15.272C5.33684 14.6682 4.99999 13.8514 4.99999 13C4.99999 12.1487 5.33684 11.3319 5.937 10.728L9.707 6.94104C10.0034 6.6428 10.3558 6.40612 10.744 6.24461C11.1322 6.0831 11.5485 5.99995 11.969 5.99995C12.3895 5.99995 12.8058 6.0831 13.194 6.24461C13.5822 6.40612 13.9346 6.6428 14.231 6.94104L16.533 9.25404" stroke="#C5BAF2" stroke-linecap="round" stroke-linejoin="round"/>
</svg>
