<svg width="540" height="545" viewBox="0 0 540 545" fill="none" xmlns="http://www.w3.org/2000/svg">
<path d="M51.1524 179.532C76.5649 179.532 97.1659 158.899 97.1659 133.447C97.1659 107.995 76.5649 87.3615 51.1524 87.3615C25.7399 87.3615 5.13904 107.995 5.13904 133.447C5.13904 158.899 25.7399 179.532 51.1524 179.532Z" stroke="#1E1539" stroke-linecap="round" stroke-linejoin="round"/>
<path d="M47.7276 174.954C73.1401 174.954 93.7411 154.321 93.7411 128.869C93.7411 103.417 73.1401 82.7837 47.7276 82.7837C22.3151 82.7837 1.71423 103.417 1.71423 128.869C1.71423 154.321 22.3151 174.954 47.7276 174.954Z" stroke="#1E1539" stroke-linecap="round" stroke-linejoin="round"/>
<path d="M47.7276 170.377C70.6158 170.377 89.1704 151.793 89.1704 128.869C89.1704 105.945 70.6158 87.3615 47.7276 87.3615C24.8394 87.3615 6.28491 105.945 6.28491 128.869C6.28491 151.793 24.8394 170.377 47.7276 170.377Z" fill="#1E1539" stroke="#1E1539" stroke-linecap="round" stroke-linejoin="round"/>
<path d="M42.8638 97.665C42.8638 97.665 38.2931 86.2137 30.2977 78.2059C22.3023 70.198 -10.2922 65.0329 -10.2922 65.0329C-5.02887 70.1174 -0.242661 75.6751 4.00625 81.6359C11.4286 91.9394 35.9878 115.416 35.9878 115.416C35.9878 115.416 23.9947 105.112 13.121 103.965C2.24727 102.817 -25.1769 108.542 -26.8559 108.542C-28.5349 108.542 -16.5685 113.12 -7.98682 117.124C0.594889 121.128 33.7357 124.572 33.7357 124.572C33.7357 124.572 19.4507 128.575 9.7496 132.019C0.0485401 135.462 -9.14615 160.634 -9.14615 160.634C-9.14615 160.634 3.43325 149.182 14.2936 146.326C25.154 143.47 40.5851 138.318 40.5851 138.318C40.5851 138.318 30.8707 149.196 28.592 156.643C26.3134 164.09 28.019 181.254 28.019 181.254C28.019 181.254 33.1627 165.238 39.4524 158.925C45.7421 152.612 52.5782 141.815 52.5782 141.815C55.7442 146.984 58.6096 152.331 61.1599 157.831C65.7306 167.561 68.5823 181.855 68.5823 181.855C68.5823 181.855 76.018 165.839 75.445 157.831C74.872 149.823 66.3036 135.502 66.3036 135.502C66.3036 135.502 72.0203 131.498 80.5887 134.928C89.157 138.358 104.028 152.679 104.028 152.679C104.028 152.679 100.59 133.781 94.8737 126.347C89.157 118.913 64.5846 116.604 64.5846 116.604C64.5846 116.604 78.31 108.596 86.8784 106.874C95.4467 105.152 106.867 109.17 106.867 109.17C106.867 109.17 93.7277 90.845 83.4403 89.6972C73.153 88.5494 57.7219 104.538 57.7219 104.538L62.3059 81.6359C63.4386 75.9103 61.1599 61.6162 61.1599 61.6162C61.1599 61.6162 54.8702 65.0462 47.4345 75.9236C45.2584 79.0566 43.7325 82.5953 42.9474 86.33C42.1622 90.0646 42.1338 93.9192 42.8638 97.665Z" fill="#45112F"/>
<path d="M54.124 80.2345C54.5238 78.5929 54.9635 76.9513 55.4566 75.3364" stroke="#1E1539" stroke-width="0.5" stroke-linecap="round" stroke-linejoin="round"/>
<path d="M15.946 80.2345C21.2762 84.145 27.9391 89.5771 31.4304 94.235C37.7201 102.817 50.2995 121.141 50.2995 121.141C49.9392 108.834 50.9132 96.5228 53.2045 84.4253" stroke="#1E1539" stroke-width="0.5" stroke-linecap="round" stroke-linejoin="round"/>
<path d="M8.00403 74.7625C8.00403 74.7625 9.66973 75.8302 12.1616 77.5519" stroke="#1E1539" stroke-width="0.5" stroke-linecap="round" stroke-linejoin="round"/>
<path d="M50.2996 121.141C50.2996 121.141 72.0203 99.3867 81.1617 97.665C90.3031 95.9433 98.3118 102.817 98.3118 102.817" stroke="#1E1539" stroke-width="0.5" stroke-linecap="round" stroke-linejoin="round"/>
<path d="M11.4819 139.333C6.1516 142.696 5.71185 144.671 5.71185 144.671" stroke="#1E1539" stroke-width="0.5" stroke-linecap="round" stroke-linejoin="round"/>
<path d="M97.7387 141.175C97.7387 141.175 94.314 132.579 82.3076 128.575C70.3013 124.572 51.4588 123.998 51.4588 123.998C51.4588 123.998 25.0074 132.673 15.333 137.197" stroke="#1E1539" stroke-width="0.5" stroke-linecap="round" stroke-linejoin="round"/>
<path d="M39.8922 120.728C46.2885 122.596 51.4455 123.998 51.4455 123.998" stroke="#1E1539" stroke-width="0.5" stroke-linecap="round" stroke-linejoin="round"/>
<path d="M-0.364502 110.558C5.84524 110.931 13.8406 111.786 18.2914 113.694C21.916 115.256 29.0585 117.511 35.8013 119.527" stroke="#1E1539" stroke-width="0.5" stroke-linecap="round" stroke-linejoin="round"/>
<path d="M50.2995 127.428C50.2995 127.428 34.3088 151.451 33.1494 157.204C32.4627 160.597 32.0791 164.045 32.0034 167.507" stroke="#1E1539" stroke-width="0.5" stroke-linecap="round" stroke-linejoin="round"/>
<path d="M57.4154 134.995C60.4936 138.999 64.1848 144.338 65.7306 148.609C67.5299 153.819 68.8676 159.179 69.7283 164.624" stroke="#1E1539" stroke-width="0.5" stroke-linecap="round" stroke-linejoin="round"/>
<path d="M52.5781 129.149C52.5781 129.149 53.9107 130.564 55.6297 132.74" stroke="#1E1539" stroke-width="0.5" stroke-linecap="round" stroke-linejoin="round"/>
<path d="M35.6013 102.603C35.6013 102.603 32.6563 90.5914 34.4819 79.4471C36.3076 68.3028 59.8007 45.0399 59.8007 45.0399C58.4949 52.2442 57.8482 59.5527 57.8684 66.8747C57.8684 79.5806 51.5388 113 51.5388 113C51.5388 113 55.2833 97.625 63.4385 90.3111C71.5938 82.9973 97.219 71.6261 98.6049 70.6518C99.9908 69.6775 92.9149 80.3813 88.2909 88.6562C83.6669 96.931 58.708 119.126 58.708 119.126C58.708 119.126 72.6466 114.028 82.5342 111.118C92.4218 108.209 114.516 123.344 114.516 123.344C114.516 123.344 97.6321 121.395 87.1449 125.412C76.6576 129.43 61.1199 134.261 61.1199 134.261C61.1199 134.261 75.3517 137.424 81.5348 142.135C87.7178 146.847 96.3529 161.835 96.3529 161.835C96.3529 161.835 82.8407 151.812 74.0591 150.37C65.2775 148.929 53.3777 144.111 53.3777 144.111C53.829 150.157 54.6209 156.172 55.7497 162.129C57.7085 172.712 63.745 186.005 63.745 186.005C63.745 186.005 48.3806 177.33 44.1697 170.483C39.9588 163.637 38.5996 147.007 38.5996 147.007C38.5996 147.007 31.6169 147.087 26.6065 154.881C21.5961 162.676 17.9049 182.989 17.9049 182.989C17.9049 182.989 9.69627 165.639 10.0028 156.296C10.3092 146.954 28.9385 130.698 28.9385 130.698C28.9385 130.698 13.1343 132.206 5.16555 135.809C-2.80318 139.413 -9.75916 149.356 -9.75916 149.356C-9.75916 149.356 -9.75916 126.8 -2.05694 119.86C5.64528 112.92 27.5126 116.924 27.5126 116.924L10.4558 101.002C6.19163 96.9977 -0.284634 84.0516 -0.284634 84.0516C-0.284634 84.0516 6.83126 83.1708 19.1974 87.6685C22.7919 88.929 26.0965 90.9007 28.9146 93.4664C31.7326 96.0321 34.0067 99.1393 35.6013 102.603Z" fill="#45112F"/>
<path d="M16.3058 95.0224C14.9732 93.9147 13.7206 92.8469 12.3881 91.8059" stroke="#1E1539" stroke-width="0.5" stroke-linecap="round" stroke-linejoin="round"/>
<path d="M47.3147 72.7204C45.2493 79.02 42.9439 87.3081 42.8906 93.1272C42.784 103.804 43.2371 126 43.2371 126C36.359 115.795 28.3922 106.37 19.4775 97.8919" stroke="#1E1539" stroke-width="0.5" stroke-linecap="round" stroke-linejoin="round"/>
<path d="M50.5927 63.6315C50.5927 63.6315 49.8465 65.4733 48.8337 68.3161" stroke="#1E1539" stroke-width="0.5" stroke-linecap="round" stroke-linejoin="round"/>
<path d="M43.2368 126C43.2368 126 12.921 121.021 4.49922 124.972C-3.92258 128.922 -6.4278 139.146 -6.4278 139.146" stroke="#1E1539" stroke-width="0.5" stroke-linecap="round" stroke-linejoin="round"/>
<path d="M85.3726 118.098C91.6223 117.751 93.1148 119.019 93.1148 119.019" stroke="#1E1539" stroke-width="0.5" stroke-linecap="round" stroke-linejoin="round"/>
<path d="M16.3724 169.99C16.3724 169.99 14.1603 161.007 21.5694 150.744C28.9784 140.481 43.9831 129.003 43.9831 129.003C43.9831 129.003 70.5144 120.581 81.0017 118.619" stroke="#1E1539" stroke-width="0.5" stroke-linecap="round" stroke-linejoin="round"/>
<path d="M51.4588 119.593C47.3545 124.838 43.9965 129.003 43.9965 129.003" stroke="#1E1539" stroke-width="0.5" stroke-linecap="round" stroke-linejoin="round"/>
<path d="M78.2299 87.8153C73.406 91.8192 67.4095 97.1578 64.9043 101.255C62.8655 104.645 58.3747 110.598 54.0706 116.217" stroke="#1E1539" stroke-width="0.5" stroke-linecap="round" stroke-linejoin="round"/>
<path d="M85.186 82.4367C85.186 82.4367 83.4936 83.6645 81.0551 85.5597" stroke="#1E1539" stroke-width="0.5" stroke-linecap="round" stroke-linejoin="round"/>
<path d="M46.9016 131.138C46.9016 131.138 73.9126 141.308 78.1635 145.299C80.6983 147.653 83.0174 150.23 85.0928 153" stroke="#1E1539" stroke-width="0.5" stroke-linecap="round" stroke-linejoin="round"/>
<path d="M45.5287 141.415C45.3421 146.46 45.4354 152.933 46.7014 157.337C48.2723 162.628 50.3103 167.769 52.7912 172.699" stroke="#1E1539" stroke-width="0.5" stroke-linecap="round" stroke-linejoin="round"/>
<path d="M46.0487 133.807C46.0487 133.807 45.8354 135.702 45.6755 138.505" stroke="#1E1539" stroke-width="0.5" stroke-linecap="round" stroke-linejoin="round"/>
<path d="M124.524 163.743H426.576C430.347 163.743 433.963 165.244 436.63 167.914C439.296 170.585 440.794 174.207 440.794 177.984V374.177C440.794 376.223 440.392 378.248 439.61 380.138C438.829 382.027 437.683 383.744 436.239 385.191C434.795 386.637 433.081 387.784 431.194 388.567C429.307 389.35 427.285 389.753 425.243 389.753H125.856C123.814 389.753 121.792 389.35 119.905 388.567C118.018 387.784 116.304 386.637 114.86 385.191C113.416 383.744 112.27 382.027 111.489 380.138C110.707 378.248 110.305 376.223 110.305 374.177V177.984C110.305 174.207 111.803 170.585 114.47 167.914C117.136 165.244 120.753 163.743 124.524 163.743Z" stroke="#1E1539" stroke-linecap="round" stroke-linejoin="round"/>
<path d="M235.073 185.992H216.47V198.231H235.073V185.992Z" fill="#1E1539"/>
<path d="M174.801 261.493H157.531V278.657H174.801V261.493Z" fill="#1E1539"/>
<path d="M251.104 201.167H233.701V218.331H251.104V201.167Z" fill="#1E1539"/>
<path d="M213.526 185.992H194.923V198.231H213.526V185.992Z" fill="#1E1539"/>
<path d="M271.439 201.167H254.036V218.331H271.439V201.167Z" fill="#1E1539"/>
<path d="M256.607 185.992H238.005V198.231H256.607V185.992Z" fill="#1E1539"/>
<path d="M164.367 241.38H131.639V258.543H164.367V241.38Z" fill="#1E1539"/>
<path d="M210.421 201.167H193.018V218.331H210.421V201.167Z" fill="#1E1539"/>
<path d="M154.599 261.493H131.639V278.657H154.599V261.493Z" fill="#1E1539"/>
<path d="M278.155 185.992H259.552V198.231H278.155V185.992Z" fill="#1E1539"/>
<path d="M169.738 201.167H152.334V218.331H169.738V201.167Z" fill="#1E1539"/>
<path d="M170.444 185.992H151.841V198.231H170.444V185.992Z" fill="#1E1539"/>
<path d="M191.992 185.992H173.389V198.231H191.992V185.992Z" fill="#1E1539"/>
<path d="M190.072 201.167H172.669V218.331H190.072V201.167Z" fill="#1E1539"/>
<path d="M230.756 201.167H213.352V218.331H230.756V201.167Z" fill="#1E1539"/>
<path d="M364.332 185.992H345.729V198.231H364.332V185.992Z" fill="#1E1539"/>
<path d="M385.866 185.992H367.263V198.231H385.866V185.992Z" fill="#1E1539"/>
<path d="M373.153 201.167H355.75V218.331H373.153V201.167Z" fill="#1E1539"/>
<path d="M393.501 201.167H376.098V218.331H393.501V201.167Z" fill="#1E1539"/>
<path d="M425.683 261.493H400.058V278.657H425.683V261.493Z" fill="#1E1539"/>
<path d="M407.414 185.992H388.811V198.231H407.414V185.992Z" fill="#1E1539"/>
<path d="M149.402 201.167H131.639V218.331H149.402V201.167Z" fill="#1E1539"/>
<path d="M299.702 185.992H281.1V198.231H299.702V185.992Z" fill="#1E1539"/>
<path d="M321.237 185.992H302.634V198.231H321.237V185.992Z" fill="#1E1539"/>
<path d="M312.135 201.167H294.732V218.331H312.135V201.167Z" fill="#1E1539"/>
<path d="M352.819 201.167H335.415V218.331H352.819V201.167Z" fill="#1E1539"/>
<path d="M291.787 201.167H274.384V218.331H291.787V201.167Z" fill="#1E1539"/>
<path d="M332.47 201.167H315.067V218.331H332.47V201.167Z" fill="#1E1539"/>
<path d="M342.784 185.992H324.182V198.231H342.784V185.992Z" fill="#1E1539"/>
<path d="M316.279 261.493H299.009V278.657H316.279V261.493Z" fill="#1E1539"/>
<path d="M406.894 241.38H389.624V258.543H406.894V241.38Z" fill="#1E1539"/>
<path d="M386.679 241.38H369.409V258.543H386.679V241.38Z" fill="#1E1539"/>
<path d="M397.113 261.493H379.843V278.657H397.113V261.493Z" fill="#1E1539"/>
<path d="M376.911 261.493H359.641V278.657H376.911V261.493Z" fill="#1E1539"/>
<path d="M336.481 261.493H319.211V278.657H336.481V261.493Z" fill="#1E1539"/>
<path d="M356.697 261.493H339.427V278.657H356.697V261.493Z" fill="#1E1539"/>
<path d="M366.464 241.38H349.194V258.543H366.464V241.38Z" fill="#1E1539"/>
<path d="M346.262 241.38H328.992V258.543H346.262V241.38Z" fill="#1E1539"/>
<path d="M425.696 185.992H410.359V198.231H425.696V185.992Z" fill="#1E1539"/>
<path d="M148.909 185.992H131.639V198.231H148.909V185.992Z" fill="#1E1539"/>
<path d="M425.696 281.593H131.639V299.437H425.696V281.593Z" fill="#1E1539"/>
<path d="M425.683 201.167H396.433V218.331H425.683V201.167Z" fill="#1E1539"/>
<path d="M425.683 241.38H409.825V258.543H425.683V241.38Z" fill="#1E1539"/>
<path d="M404.948 238.31H402.003V221.28H384.733V238.31H381.801V221.28H364.531V238.31H361.587V221.28H344.316V238.31H341.372V221.28H324.102V238.31H321.17V221.28H303.9V238.31H300.955V221.28H283.685V238.31H280.74V221.28H263.47V238.31H260.538V221.28H243.268V238.31H240.323V221.28H223.053V238.31H220.108V221.28H202.838V238.31H199.907V221.28H182.637V238.31H179.692V221.28H162.422V238.31H159.477V221.28H131.639V238.444H425.683V221.28H404.948V238.31Z" fill="#1E1539"/>
<path d="M265.416 241.38H248.146V258.543H265.416V241.38Z" fill="#1E1539"/>
<path d="M326.047 241.38H308.777V258.543H326.047V241.38Z" fill="#1E1539"/>
<path d="M224.999 241.38H207.729V258.543H224.999V241.38Z" fill="#1E1539"/>
<path d="M235.433 261.493H218.163V278.657H235.433V261.493Z" fill="#1E1539"/>
<path d="M245.2 241.38H227.93V258.543H245.2V241.38Z" fill="#1E1539"/>
<path d="M204.784 241.38H187.514V258.543H204.784V241.38Z" fill="#1E1539"/>
<path d="M195.016 261.493H177.746V278.657H195.016V261.493Z" fill="#1E1539"/>
<path d="M215.218 261.493H197.948V278.657H215.218V261.493Z" fill="#1E1539"/>
<path d="M285.631 241.38H268.361V258.543H285.631V241.38Z" fill="#1E1539"/>
<path d="M296.064 261.493H278.794V278.657H296.064V261.493Z" fill="#1E1539"/>
<path d="M305.832 241.38H288.562V258.543H305.832V241.38Z" fill="#1E1539"/>
<path d="M255.648 261.493H238.378V278.657H255.648V261.493Z" fill="#1E1539"/>
<path d="M275.849 261.493H258.579V278.657H275.849V261.493Z" fill="#1E1539"/>
<path d="M184.569 241.38H167.299V258.543H184.569V241.38Z" fill="#1E1539"/>
<path fill-rule="evenodd" clip-rule="evenodd" d="M89.6636 40.9559H459.663C461.479 40.9618 463.268 41.386 464.894 42.1957C466.52 43.0054 467.937 44.1789 469.038 45.6254C470.138 47.0718 470.891 48.7524 471.239 50.5371C471.586 52.3217 471.52 54.1626 471.043 55.9173L443.992 156.79C443.318 159.308 441.834 161.533 439.769 163.121C437.705 164.708 435.175 165.57 432.572 165.572H396.593V172.512H154.479V165.532H116.715C114.112 165.53 111.582 164.668 109.518 163.081C107.453 161.493 105.969 159.268 105.295 156.75L78.2435 55.8772C77.7736 54.1219 77.7129 52.2819 78.0663 50.4994C78.4197 48.7169 79.1776 47.0396 80.2815 45.5973C81.3853 44.155 82.8056 42.9863 84.4324 42.1814C86.0593 41.3766 87.8491 40.9573 89.6636 40.9559ZM131.506 156.63H417.821L446.444 53.4215H102.869L131.506 156.63Z" fill="#1E1539"/>
<path d="M459.663 40.9559L459.665 40.4559H459.663V40.9559ZM89.6636 40.9559V40.4559L89.6632 40.4559L89.6636 40.9559ZM464.894 42.1957L464.671 42.6433L464.894 42.1957ZM469.038 45.6254L468.64 45.9281L469.038 45.6254ZM471.239 50.5371L471.729 50.4414L471.729 50.4414L471.239 50.5371ZM471.043 55.9173L470.561 55.7863L470.56 55.7878L471.043 55.9173ZM443.992 156.79L443.509 156.66L443.509 156.661L443.992 156.79ZM432.572 165.572V166.072H432.573L432.572 165.572ZM396.593 165.572V165.072C396.317 165.072 396.093 165.296 396.093 165.572H396.593ZM396.593 172.512V173.012C396.869 173.012 397.093 172.788 397.093 172.512H396.593ZM154.479 172.512H153.979C153.979 172.788 154.203 173.012 154.479 173.012V172.512ZM154.479 165.532H154.979C154.979 165.256 154.756 165.032 154.479 165.032V165.532ZM116.715 165.532L116.714 166.032H116.715V165.532ZM109.518 163.081L109.213 163.477L109.518 163.081ZM105.295 156.75L105.778 156.621L105.778 156.62L105.295 156.75ZM78.2435 55.8772L77.7605 56.0065L77.7606 56.0067L78.2435 55.8772ZM78.0663 50.4994L78.5568 50.5966L78.0663 50.4994ZM84.4324 42.1814L84.6542 42.6296L84.4324 42.1814ZM417.821 156.63V157.13C418.045 157.13 418.243 156.98 418.303 156.763L417.821 156.63ZM131.506 156.63L131.024 156.763C131.085 156.98 131.282 157.13 131.506 157.13V156.63ZM446.444 53.4215L446.926 53.5551C446.968 53.4045 446.937 53.2432 446.842 53.1188C446.748 52.9945 446.6 52.9215 446.444 52.9215V53.4215ZM102.869 53.4215V52.9215C102.713 52.9215 102.566 52.9945 102.471 53.1188C102.377 53.2432 102.346 53.4046 102.388 53.5551L102.869 53.4215ZM459.663 40.4559H89.6636V41.4559H459.663V40.4559ZM465.117 41.7482C463.423 40.9042 461.557 40.462 459.665 40.4559L459.661 41.4559C461.4 41.4615 463.114 41.8678 464.671 42.6433L465.117 41.7482ZM469.435 45.3227C468.289 43.8152 466.811 42.5921 465.117 41.7482L464.671 42.6433C466.228 43.4187 467.586 44.5427 468.64 45.9281L469.435 45.3227ZM471.729 50.4414C471.367 48.5816 470.582 46.8301 469.435 45.3227L468.64 45.9281C469.693 47.3135 470.415 48.9232 470.748 50.6327L471.729 50.4414ZM471.526 56.0483C472.022 54.2197 472.092 52.3013 471.729 50.4414L470.748 50.6327C471.081 52.3422 471.017 54.1055 470.561 55.7863L471.526 56.0483ZM444.475 156.919L471.526 56.0468L470.56 55.7878L443.509 156.66L444.475 156.919ZM440.074 163.517C442.226 161.862 443.773 159.543 444.475 156.919L443.509 156.661C442.863 159.073 441.442 161.204 439.464 162.724L440.074 163.517ZM432.573 166.072C435.286 166.07 437.922 165.172 440.074 163.517L439.464 162.724C437.487 164.245 435.064 165.07 432.572 165.072L432.573 166.072ZM396.593 166.072H432.572V165.072H396.593V166.072ZM397.093 172.512V165.572H396.093V172.512H397.093ZM154.479 173.012H396.593V172.012H154.479V173.012ZM153.979 165.532V172.512H154.979V165.532H153.979ZM116.715 166.032H154.479V165.032H116.715V166.032ZM109.213 163.477C111.365 165.132 114.001 166.03 116.714 166.032L116.715 165.032C114.222 165.03 111.8 164.205 109.822 162.684L109.213 163.477ZM104.812 156.879C105.514 159.503 107.061 161.822 109.213 163.477L109.822 162.684C107.845 161.164 106.423 159.033 105.778 156.621L104.812 156.879ZM77.7606 56.0067L104.812 156.879L105.778 156.62L78.7265 55.7477L77.7606 56.0067ZM77.5758 50.4022C77.2076 52.2598 77.2708 54.1773 77.7605 56.0065L78.7265 55.7479C78.2763 54.0666 78.2183 52.304 78.5568 50.5966L77.5758 50.4022ZM79.8844 45.2934C78.734 46.7966 77.9441 48.5446 77.5758 50.4022L78.5568 50.5966C78.8952 48.8892 79.6212 47.2827 80.6785 45.9012L79.8844 45.2934ZM84.2107 41.7333C82.5151 42.5721 81.0349 43.7903 79.8844 45.2934L80.6785 45.9012C81.7358 44.5197 83.0961 43.4004 84.6542 42.6296L84.2107 41.7333ZM89.6632 40.4559C87.7719 40.4574 85.9064 40.8944 84.2107 41.7333L84.6542 42.6296C86.2122 41.8588 87.9263 41.4572 89.664 41.4559L89.6632 40.4559ZM417.821 156.13H131.506V157.13H417.821V156.13ZM445.962 53.2878L417.339 156.496L418.303 156.763L446.926 53.5551L445.962 53.2878ZM102.869 53.9215H446.444V52.9215H102.869V53.9215ZM131.988 156.496L103.351 53.2878L102.388 53.5551L131.024 156.763L131.988 156.496Z" fill="#1E1539"/>
<path d="M150.509 111.332V112.666H145.458V111.332H150.509Z" fill="#1E1539"/>
<path d="M156.798 111.332V112.666H151.735V111.332H156.798Z" fill="#1E1539"/>
<path d="M163.088 111.332V112.666H158.064V111.332H163.088Z" fill="#1E1539"/>
<path d="M169.364 111.332V112.666H164.314V111.332H169.364Z" fill="#1E1539"/>
<path d="M175.654 111.332V112.666H170.59V111.332H175.654Z" fill="#1E1539"/>
<path d="M181.944 111.332V112.666H176.88V111.332H181.944Z" fill="#1E1539"/>
<path d="M188.22 111.332V112.666H183.17V111.332H188.22Z" fill="#1E1539"/>
<path d="M194.443 118.365L188.873 103.497H190.205L195.776 118.365H194.443Z" fill="#1E1539"/>
<path d="M145.418 89.6838V91.0185H140.368V89.6838H145.418Z" fill="#1E1539"/>
<path d="M151.708 89.6838V91.0185H146.657V89.6838H151.708Z" fill="#1E1539"/>
<path d="M158.064 89.6838V91.0185H153.001V89.6838H158.064Z" fill="#1E1539"/>
<path d="M164.287 89.6838V91.0185H159.224V89.6838H164.287Z" fill="#1E1539"/>
<path d="M170.564 89.6838V91.0185H165.513V89.6838H170.564Z" fill="#1E1539"/>
<path d="M181.198 89.6838V91.0185H176.134V89.6838H181.198Z" fill="#1E1539"/>
<path d="M187.474 89.6838V91.0185H182.424V89.6838H187.474Z" fill="#1E1539"/>
<path d="M193.764 89.6838V91.0185H188.713V89.6838H193.764Z" fill="#1E1539"/>
<path d="M200.053 89.6838V91.0185H194.99V89.6838H200.053Z" fill="#1E1539"/>
<path d="M206.33 89.6838V91.0185H201.28V89.6838H206.33Z" fill="#1E1539"/>
<path d="M212.619 89.6838V91.0185H207.569V89.6838H212.619Z" fill="#1E1539"/>
<path d="M218.909 89.6838V91.0185H213.845V89.6838H218.909Z" fill="#1E1539"/>
<path d="M229.53 89.6838V91.0185H224.479V89.6838H229.53Z" fill="#1E1539"/>
<path d="M235.819 89.6838V91.0185H230.756V89.6838H235.819Z" fill="#1E1539"/>
<path d="M242.109 89.6838V91.0185H237.045V89.6838H242.109Z" fill="#1E1539"/>
<path d="M252.676 89.6838V91.0185H247.626V89.6838H252.676Z" fill="#1E1539"/>
<path d="M259.019 89.6838V91.0185H254.009V89.6838H259.019Z" fill="#1E1539"/>
<path d="M265.309 89.6838V91.0185H260.245V89.6838H265.309Z" fill="#1E1539"/>
<path d="M288.949 89.6838V91.0185H283.898V89.6838H288.949Z" fill="#1E1539"/>
<path d="M295.238 89.6838V91.0185H290.175V89.6838H295.238Z" fill="#1E1539"/>
<path d="M301.528 89.6838V91.0185H296.464V89.6838H301.528Z" fill="#1E1539"/>
<path d="M307.804 89.6838V91.0185H302.754V89.6838H307.804Z" fill="#1E1539"/>
<path d="M314.094 89.6838V91.0185H309.03V89.6838H314.094Z" fill="#1E1539"/>
<path d="M324.714 89.6838V91.0185H319.664V89.6838H324.714Z" fill="#1E1539"/>
<path d="M331.004 89.6838V91.0185H325.967V89.6838H331.004Z" fill="#1E1539"/>
<path d="M337.294 89.6838V91.0185H332.23V89.6838H337.294Z" fill="#1E1539"/>
<path d="M347.915 89.6838V91.0185H342.864V89.6838H347.915Z" fill="#1E1539"/>
<path d="M358.549 89.6838V91.0185H353.485V89.6838H358.549Z" fill="#1E1539"/>
<path d="M442.82 309.033L428.561 364.127L442.047 368.091L442.82 309.033Z" stroke="#1E1539" stroke-linecap="round" stroke-linejoin="round"/>
<path d="M449.216 250.802C447.607 248.326 447.019 245.322 447.577 242.421C448.31 236.989 454.852 235.748 454.852 235.748C454.852 235.748 456.278 234.667 461.515 236.655C466.752 238.644 507.249 244.143 533.127 247.653C559.006 251.163 567.387 248.894 567.028 257.796C566.668 266.698 543.961 346.59 543.614 349.099C543.268 351.608 449.216 250.802 449.216 250.802Z" stroke="#1E1539" stroke-miterlimit="10"/>
<path d="M558.065 265.585L449.205 250.805L431.614 380.772L540.474 395.552L558.065 265.585Z" stroke="#1E1539" stroke-linecap="round" stroke-linejoin="round"/>
<path d="M537.831 291.509L544.161 292.377" stroke="#1E1539" stroke-width="0.5" stroke-linecap="round" stroke-linejoin="round"/>
<path d="M498.188 286.131L532.821 290.842" stroke="#1E1539" stroke-width="0.5" stroke-linecap="round" stroke-linejoin="round"/>
<path d="M456.212 280.432L493.177 285.45" stroke="#1E1539" stroke-width="0.5" stroke-linecap="round" stroke-linejoin="round"/>
<path d="M527.917 301.933L542.602 303.935" stroke="#1E1539" stroke-width="0.5" stroke-linecap="round" stroke-linejoin="round"/>
<path d="M454.652 291.99L512.899 299.891" stroke="#1E1539" stroke-width="0.5" stroke-linecap="round" stroke-linejoin="round"/>
<path d="M484.209 307.765L541.043 315.479" stroke="#1E1539" stroke-width="0.5" stroke-linecap="round" stroke-linejoin="round"/>
<path d="M453.08 303.534L478.359 306.978" stroke="#1E1539" stroke-width="0.5" stroke-linecap="round" stroke-linejoin="round"/>
<path d="M503.091 322.099L539.47 327.038" stroke="#1E1539" stroke-width="0.5" stroke-linecap="round" stroke-linejoin="round"/>
<path d="M472.216 317.895L498.92 321.525" stroke="#1E1539" stroke-width="0.5" stroke-linecap="round" stroke-linejoin="round"/>
<path d="M451.521 315.092L467.618 317.281" stroke="#1E1539" stroke-width="0.5" stroke-linecap="round" stroke-linejoin="round"/>
<path d="M524.892 336.82L537.911 338.582" stroke="#1E1539" stroke-width="0.5" stroke-linecap="round" stroke-linejoin="round"/>
<path d="M449.962 326.65L516.137 335.633" stroke="#1E1539" stroke-width="0.5" stroke-linecap="round" stroke-linejoin="round"/>
<path d="M499.547 345.135L536.352 350.14" stroke="#1E1539" stroke-width="0.5" stroke-linecap="round" stroke-linejoin="round"/>
<path d="M448.39 338.195L493.284 344.294" stroke="#1E1539" stroke-width="0.5" stroke-linecap="round" stroke-linejoin="round"/>
<path d="M510.913 358.455L534.78 361.685" stroke="#1E1539" stroke-width="0.5" stroke-linecap="round" stroke-linejoin="round"/>
<path d="M462.515 351.875L505.077 357.654" stroke="#1E1539" stroke-width="0.5" stroke-linecap="round" stroke-linejoin="round"/>
<path d="M446.831 349.753L457.504 351.195" stroke="#1E1539" stroke-width="0.5" stroke-linecap="round" stroke-linejoin="round"/>
<path d="M521.161 405.208L521.041 416.726L514.338 407.25L487.433 316.614L494.256 314.572L521.161 405.208Z" stroke="#1E1539" stroke-linecap="round" stroke-linejoin="round"/>
<path d="M491.586 318.445L487.864 319.533L514.299 410.31L518.022 409.222L491.586 318.445Z" fill="#45112F" stroke="#1E1539" stroke-width="0.5" stroke-linecap="round" stroke-linejoin="round"/>
<path d="M521.161 405.235L514.351 407.263L521.041 416.726L521.161 405.235Z" stroke="#1E1539" stroke-linecap="round" stroke-linejoin="round"/>
<path d="M517.696 411.988L521.041 416.726L521.108 410.974L517.696 411.988Z" fill="#1E1539" stroke="#1E1539" stroke-linecap="round" stroke-linejoin="round"/>
<path d="M487.833 305.443C486.931 305.715 486.172 306.333 485.722 307.163C485.273 307.994 485.17 308.968 485.435 309.874L487.434 316.614L494.256 314.585L492.257 307.845C491.986 306.941 491.368 306.181 490.54 305.731C489.711 305.281 488.738 305.177 487.833 305.443Z" stroke="#1E1539" stroke-linecap="round" stroke-linejoin="round"/>
<path d="M487.833 305.443C486.931 305.715 486.172 306.333 485.722 307.163C485.273 307.994 485.17 308.968 485.435 309.874L486.394 313.09L493.204 311.062L492.257 307.845C491.986 306.941 491.368 306.181 490.54 305.731C489.711 305.281 488.738 305.177 487.833 305.443Z" fill="#1E1539" stroke="#1E1539" stroke-linecap="round" stroke-linejoin="round"/>
<path d="M241.016 321.993C240.323 327.011 239.284 334.004 238.244 338.155" stroke="#1E1539" stroke-linecap="round" stroke-linejoin="round"/>
<path d="M241.789 315.893C241.789 315.893 241.682 316.841 241.482 318.376" stroke="#1E1539" stroke-linecap="round" stroke-linejoin="round"/>
<path d="M245.346 330.134C243.892 334.995 242.111 339.753 240.016 344.375" stroke="#1E1539" stroke-linecap="round" stroke-linejoin="round"/>
<path d="M311.975 337.248C311.975 337.248 312.868 348.819 319.077 355.052" stroke="#1E1539" stroke-linecap="round" stroke-linejoin="round"/>
<path d="M311.082 348.819C311.082 348.819 313.747 356.827 319.077 360.39" stroke="#1E1539" stroke-linecap="round" stroke-linejoin="round"/>
<g style="mix-blend-mode:multiply">
<path d="M130.08 410.667C130.08 410.667 135.997 405.902 135.997 364.941C135.997 323.981 142.806 294.058 151.201 280.939C159.596 267.819 167.445 262.561 171.123 262.561C174.801 262.561 172.162 267.285 166.925 274.105C161.688 280.925 156.971 284.609 154.866 293.017C152.76 301.426 152.774 311.916 155.399 310.862C158.024 309.807 162.208 288.813 165.873 280.939C169.537 273.064 178.465 263.081 183.702 258.357C188.939 253.632 200.479 239.458 205.716 243.128C210.953 246.799 207.822 252.057 204.677 254.152C201.532 256.248 188.939 268.834 183.183 276.735C177.426 284.636 173.748 304.562 176.893 305.083C180.038 305.603 189.472 276.214 194.709 269.915C199.946 263.615 220.921 246.278 225.638 245.757C230.355 245.237 230.888 252.578 226.691 256.261C222.493 259.945 208.341 275.68 203.624 285.13C198.907 294.579 196.801 311.916 200.959 307.712C205.117 303.508 211.966 286.184 217.736 280.405C223.506 274.626 240.803 256.261 245 258.357C249.198 260.452 248.145 265.71 244.481 269.381C240.816 273.051 226.651 293.017 222.986 303.508C219.322 313.998 215.111 343.414 217.216 339.223C219.322 335.032 226.131 313.491 229.796 304.522C233.46 295.553 240.803 291.402 241.855 295.593C242.908 299.784 240.803 301.893 238.177 311.355C235.552 320.818 235.512 346.056 227.704 360.177C219.895 374.297 188.553 404.514 184.369 415.004C181.338 422.23 177.719 429.193 173.548 435.825" fill="#45112F"/>
</g>
<g style="mix-blend-mode:multiply">
<path d="M421.312 414.217C421.312 414.217 415.249 405.902 415.249 364.941C415.249 323.981 408.426 294.058 400.044 280.939C391.662 267.819 383.787 262.561 380.122 262.561C376.458 262.561 379.069 267.285 384.32 274.105C389.57 280.925 394.274 284.609 396.313 293.017C398.352 301.426 398.418 311.916 395.793 310.862C393.168 309.807 388.984 288.813 385.306 280.939C381.628 273.064 372.726 263.081 367.489 258.357C362.252 253.632 350.712 239.458 345.462 243.128C340.212 246.799 343.37 252.057 346.515 254.152C349.66 256.248 362.239 268.834 368.009 276.735C373.779 284.636 377.444 304.562 374.299 305.083C371.154 305.603 361.759 276.214 356.522 269.941C351.285 263.668 330.298 246.305 325.58 245.784C320.863 245.264 320.343 252.604 324.541 256.288C328.738 259.971 342.89 275.707 347.608 285.156C352.325 294.606 354.417 311.943 350.273 307.739C346.128 303.534 339.266 286.211 333.509 280.432C327.752 274.653 310.442 256.288 306.245 258.383C302.047 260.479 303.1 265.737 306.765 269.407C310.429 273.078 324.594 293.044 328.259 303.534C331.923 314.025 336.121 343.44 334.029 339.25C331.937 335.059 325.114 313.518 321.449 304.549C317.785 295.58 310.442 291.429 309.39 295.62C308.337 299.811 310.442 301.919 313.054 311.382C315.666 320.845 315.719 346.083 323.541 360.204C331.364 374.324 361.813 401.885 366.01 412.388C370.208 422.892 377.803 439.442 377.803 439.442" fill="#45112F"/>
</g>
<path d="M128.081 420.756C128.081 420.756 135.944 395.038 135.944 354.024C135.944 313.01 142.753 283.141 151.148 270.021C159.543 256.902 167.392 251.643 171.07 251.643C174.748 251.643 172.109 256.368 166.872 263.188C161.635 270.008 156.918 273.692 154.813 282.087C152.707 290.482 152.721 300.999 155.346 299.944C157.971 298.89 162.155 277.896 165.82 270.021C169.484 262.147 178.412 252.164 183.649 247.439C188.886 242.714 200.426 228.541 205.663 232.211C210.9 235.881 207.769 241.14 204.624 243.235C201.479 245.33 188.886 257.916 183.13 265.817C177.373 273.718 173.695 293.645 176.84 294.165C179.985 294.686 189.419 265.297 194.656 258.984C199.893 252.671 220.868 235.361 225.585 234.84C230.302 234.32 230.835 241.66 226.638 245.344C222.44 249.027 208.288 264.763 203.571 274.212C198.854 283.661 196.748 300.999 200.906 296.794C205.064 292.59 211.913 275.267 217.683 269.488C223.453 263.709 240.75 245.344 244.947 247.439C249.145 249.535 248.092 254.793 244.428 258.463C240.763 262.134 226.598 282.087 222.933 292.59C219.269 303.094 215.058 332.496 217.163 328.292C219.269 324.088 226.078 302.573 229.743 293.591C233.407 284.609 240.75 280.458 241.802 284.662C242.855 288.867 240.75 290.962 238.124 300.411C235.499 309.861 235.459 335.112 227.651 349.246C219.842 363.38 189.379 401.751 185.182 412.255C180.984 422.758 171.55 445.861 171.55 445.861" stroke="#1E1539" stroke-linecap="round" stroke-linejoin="round"/>
<path d="M423.098 420.756C423.098 420.756 415.235 395.038 415.235 354.024C415.235 313.01 408.413 283.141 400.031 270.021C391.649 256.902 383.774 251.643 380.109 251.643C376.444 251.643 379.056 256.368 384.307 263.188C389.557 270.008 394.261 273.692 396.3 282.087C398.338 290.482 398.405 300.999 395.78 299.944C393.155 298.89 388.971 277.896 385.293 270.021C381.615 262.147 372.713 252.164 367.476 247.439C362.239 242.714 350.699 228.541 345.449 232.211C340.199 235.881 343.357 241.14 346.502 243.235C349.647 245.33 362.226 257.916 367.996 265.817C373.766 273.718 377.431 293.645 374.286 294.165C371.141 294.686 361.706 265.297 356.469 258.984C351.232 252.671 330.245 235.361 325.527 234.84C320.81 234.32 320.29 241.66 324.488 245.344C328.685 249.027 342.837 264.763 347.555 274.212C352.272 283.661 354.364 300.999 350.22 296.794C346.075 292.59 339.213 275.267 333.456 269.488C327.699 263.708 310.389 245.344 306.192 247.439C301.994 249.535 303.047 254.793 306.711 258.463C310.376 262.134 324.541 282.087 328.206 292.59C331.87 303.094 336.068 332.496 333.976 328.292C331.884 324.088 325.061 302.573 321.396 293.591C317.732 284.609 310.389 280.458 309.337 284.662C308.284 288.867 310.389 290.962 313.001 300.411C315.613 309.861 315.666 335.112 323.488 349.246C331.311 363.38 361.76 401.751 365.957 412.255C370.155 422.758 379.589 445.861 379.589 445.861" stroke="#1E1539" stroke-linecap="round" stroke-linejoin="round"/>
<path d="M94.4482 543.638H174.707C175.751 537.75 177.062 531.156 178.72 524.013C185.034 496.263 205.473 461.566 205.473 461.566C190.824 442.638 173.61 428.473 154.964 420.001C124.198 406.106 101.672 410.188 101.672 410.188C105.818 435.272 106.274 461.363 103.009 486.725C98.9963 515.299 96.321 533.374 94.4482 543.638Z" fill="#1E1539" stroke="#1E1539" stroke-linecap="round" stroke-linejoin="round"/>
<path d="M375.674 543.638H458.838C456.17 533.483 450.407 511.43 444.644 489.377C436.773 459.345 439.921 418.924 436.773 418.924C433.625 418.924 398.259 415.454 380.97 423.531C363.681 431.607 344.017 454.719 344.017 454.719C352.919 469.917 360.571 486.603 366.816 504.432C370.83 516.93 373.804 530.094 375.674 543.638Z" fill="#1E1539" stroke="#1E1539" stroke-linecap="round" stroke-linejoin="round"/>
</svg>
