<svg width="20" height="19" viewBox="0 0 20 19" fill="none" xmlns="http://www.w3.org/2000/svg">
<path d="M16.8466 16.1343H13.9651V11.7617C13.9651 10.719 13.9458 9.37669 12.4663 9.37669C10.9655 9.37669 10.7359 10.5127 10.7359 11.6857V16.134H7.85424V7.14209H10.6206V8.37093H10.6593C10.9362 7.91227 11.3362 7.53496 11.8169 7.27918C12.2975 7.0234 12.8407 6.89872 13.3887 6.91843C16.3094 6.91843 16.8479 8.77987 16.8479 11.2015L16.8466 16.1343ZM4.60284 5.91297C4.2721 5.91302 3.94877 5.81805 3.67374 5.64006C3.39871 5.46206 3.18435 5.20904 3.05772 4.91298C2.9311 4.61693 2.89792 4.29115 2.96238 3.97682C3.02685 3.6625 3.18607 3.37376 3.41989 3.14711C3.65371 2.92047 3.95165 2.7661 4.27602 2.70352C4.60039 2.64094 4.93661 2.67297 5.2422 2.79556C5.54778 2.91814 5.80898 3.12578 5.99278 3.3922C6.17658 3.65863 6.27471 3.97189 6.27477 4.29236C6.27481 4.50514 6.23159 4.71585 6.14759 4.91245C6.06359 5.10905 5.94046 5.28769 5.78521 5.43818C5.62995 5.58867 5.44562 5.70805 5.24275 5.78952C5.03988 5.87098 4.82244 5.91293 4.60284 5.91297ZM6.04364 16.1343H3.15904V7.14209H6.04364V16.1343ZM18.2833 0.0794089H1.71104C1.3349 0.0752959 0.97244 0.216048 0.703345 0.470736C0.434249 0.725425 0.280531 1.07321 0.27594 1.43767V17.5621C0.280373 17.9267 0.434002 18.2747 0.703088 18.5297C0.972174 18.7846 1.33471 18.9256 1.71104 18.9218H18.2833C18.6603 18.9264 19.0239 18.7857 19.294 18.5308C19.5642 18.2758 19.7188 17.9274 19.724 17.5621V1.43651C19.7187 1.07133 19.5639 0.723143 19.2937 0.468461C19.0236 0.213779 18.6601 0.0734286 18.2833 0.078245" fill="#FEA55F"/>
</svg>
