<svg width="704" height="718" viewBox="0 0 704 718" fill="none" xmlns="http://www.w3.org/2000/svg">
<g clip-path="url(#clip0_150_1579)">
<path fill-rule="evenodd" clip-rule="evenodd" d="M704 0H0V718H704V0ZM347.692 36.7535L87.6918 202.924C85.3918 204.394 84 206.936 84 209.665V508.335C84 511.064 85.3918 513.606 87.6918 515.076L347.692 681.247C350.319 682.925 353.681 682.925 356.308 681.247L616.308 515.076C618.608 513.606 620 511.064 620 508.335V209.665C620 206.936 618.608 204.394 616.308 202.924L356.308 36.7535C353.681 35.0746 350.319 35.0746 347.692 36.7535Z" fill="#070113"/>
<path opacity="0.1" d="M82.462 204.043L351.462 32.3434C351.79 32.134 352.21 32.134 352.538 32.3434L621.538 204.043C621.826 204.227 622 204.544 622 204.886V513.114C622 513.456 621.826 513.773 621.538 513.957L352.538 685.657C352.21 685.866 351.79 685.866 351.462 685.657L82.462 513.957C82.1742 513.773 82 513.456 82 513.114V204.886C82 204.544 82.1742 204.227 82.462 204.043Z" stroke="white" stroke-width="2"/>
</g>
<defs>
<clipPath id="clip0_150_1579">
<rect width="704" height="718" fill="white"/>
</clipPath>
</defs>
</svg>
